<?xml version="1.0" encoding="UTF-8"?> <svg xmlns="http://www.w3.org/2000/svg" xmlns:xlink="http://www.w3.org/1999/xlink" version="1.1" id="Calque_1" x="0px" y="0px" viewBox="0 0 1080 145.6" style="enable-background:new 0 0 1080 145.6;" xml:space="preserve"> <style type="text/css"> .st0{display:none;fill:#FFFFFF;} .st1{fill:#0076CE;stroke:#0076CE;stroke-width:1.06;stroke-miterlimit:4.24;} </style> <g id="_x34_1123626-faae-4537-9d95-2801a5481aba" transform="matrix(1 0 0 1 540 540)"> <rect x="-540" y="-1006.6" vector-effect="non-scaling-stroke" class="st0" width="1080" height="1080"></rect> </g> <g id="_x38_25de018-4a51-4ed0-a16b-189c8be38a9d" transform="matrix(1 0 0 1 540 540)"> </g> <g transform="matrix(1.06 0 0 1.06 540 540)"> <path class="st1" d="M507.5-421.3c0-12.2-6.8-17.7-20.4-20.4c-13.6-2.7-21.7-4.1-21.7-13.6c0-6.8,5.4-10.9,15-10.9 c12.2,0,16.3,5.4,16.3,12.2l1.4,1.4h5.4l1.4-1.4c0-13.6-10.9-19-24.5-19c-15,0-23.1,8.1-23.1,17.7c0,10.9,8.2,16.3,21.7,19 c13.6,2.7,20.4,4.1,20.4,15c0,6.8-4.1,12.2-17.7,12.2c-12.2,0-17.7-6.8-17.7-14.9l-1.4-1.4h-5.4l-1.4,1.4 c0,12.2,9.5,21.7,25.8,21.7C499.3-402.3,507.5-410.5,507.5-421.3 M449.1-434.9l1.3-1.4v-4.1c0-19-10.9-32.6-29.9-32.6 c-19,0-29.9,13.6-29.9,32.6v2.7c0,19,9.5,35.3,31.2,35.3c19,0,25.8-12.2,27.2-20.4l-1.4-1.4h-5.4l-1.4,1.4 c-2.7,8.1-8.1,13.6-19,13.6c-17.7,0-23.1-16.3-23.1-24.5l1.4-1.4H449.1z M440.9-441.7h-40.8l-1.4-1.4c0-9.5,5.4-23.1,21.7-23.1 c16.3,0,21.7,13.6,21.7,23.1L440.9-441.7z M381.1-405v-65.2l-1.4-1.4h-5.4l-1.4,1.4v65.2l1.4,1.4h5.4L381.1-405z M381.1-483.8v-8.1 l-1.4-1.4h-5.4L373-492v8.1l1.4,1.4h5.4L381.1-483.8z M329.5-409.1c-13.6,0-21.7-9.5-21.7-28.5s8.2-28.5,21.7-28.5 c13.6,0,21.7,9.5,21.7,28.5C351.3-418.6,343.1-409.1,329.5-409.1 M351.3-413.2c0,17.7-4.1,31.2-20.4,31.2 c-12.2,0-16.3-5.4-17.7-12.2l-1.4-1.4h-5.4l-1.4,1.4c1.4,10.9,9.5,19,25.8,19c17.7,0,28.5-10.9,28.5-38v-57.1l-1.4-1.4H354 l-1.4,1.4l-1.4,8.2h-1.4c-2.7-5.4-9.5-10.9-21.7-10.9c-19,0-28.5,15-28.5,35.3c0,20.4,9.5,35.3,28.5,35.3c12.2,0,19-5.4,21.7-10.9 H351.3z M263-466.2c13.6,0,23.1,10.9,23.1,28.5s-9.5,28.5-23.1,28.5c-13.6,0-23.1-10.9-23.1-28.5S249.4-466.2,263-466.2 M263-402.3 c17.7,0,31.2-12.2,31.2-35.3S280.6-473,263-473c-17.7,0-31.3,12.2-31.3,35.3C231.7-414.6,245.3-402.3,263-402.3 M222.2-405v-92.4 l-1.4-1.4h-5.4l-1.4,1.4v92.4l1.4,1.4h5.4L222.2-405z M173.3-466.2c13.6,0,23.1,10.9,23.1,28.5s-9.5,28.5-23.1,28.5 c-13.6,0-23.1-10.9-23.1-28.5S159.7-466.2,173.3-466.2 M173.3-402.3c17.7,0,31.2-12.2,31.2-35.3S191-473,173.3-473 c-17.7,0-31.2,12.2-31.2,35.3C142-414.6,155.6-402.3,173.3-402.3 M133.9-405v-40.8c0-17.7-9.5-27.2-24.5-27.2 c-9.5,0-17.7,4.1-21.7,10.9h-1.4l-1.3-8.2l-1.4-1.4h-4.1l-1.4,1.4v65.2l1.4,1.4H85l1.3-1.4v-36.7c0-15,6.8-24.5,21.7-24.5 c10.9,0,17.7,6.8,17.7,20.4v40.8l1.4,1.4h5.4L133.9-405z M64.6-405v-40.8c0-17.7-9.5-27.2-24.5-27.2c-9.5,0-17.7,4.1-21.7,10.9 h-1.4v-35.3l-1.4-1.4h-5.4l-1.4,1.4v92.4l1.4,1.4h5.4l1.4-1.4v-36.7c0-15,6.8-24.5,21.7-24.5c10.9,0,17.7,6.8,17.7,20.4v40.8 l1.4,1.4h5.4L64.6-405z M-52.2-437.6c0-19,9.5-28.5,23.1-28.5c13.6,0,19,8.1,20.4,16.3l1.4,1.4H-2l1.4-1.4 C-2-463.5-12.8-473-29.1-473c-17.7,0-31.2,10.9-31.2,35.3c0,24.5,13.6,35.3,31.2,35.3c16.3,0,27.2-9.5,28.5-23.1l-1.4-1.4h-5.4 l-1.4,1.4c-1.4,8.1-6.8,16.3-20.4,16.3C-42.7-409.1-52.2-418.6-52.2-437.6 M-67.2-434.9l1.4-1.4v-4.1c0-19-10.9-32.6-29.9-32.6 c-19,0-29.9,13.6-29.9,32.6v2.7c0,19,9.5,35.3,31.2,35.3c19,0,25.8-12.2,27.2-20.4l-1.4-1.4H-74l-1.4,1.4 c-2.7,8.1-8.2,13.6-19,13.6c-17.7,0-23.1-16.3-23.1-24.5l1.4-1.4H-67.2z M-75.3-441.7h-40.8l-1.4-1.4c0-9.5,5.4-23.1,21.7-23.1 c16.3,0,21.7,13.6,21.7,23.1L-75.3-441.7z M-111.9-493.4v-4.1l-1.4-1.4h-70.6l-1.4,1.4v4.1l1.4,1.4h29.9l1.4,1.4v85.6l1.4,1.4h5.4 l1.4-1.4v-85.6l1.4-1.4h29.9L-111.9-493.4z M-185.3-422.6v18.9h-61.4v-95.1h21.6v76.2H-185.3z M-468.9-403.7 c22.1,0,40.7-15.1,46-35.6l53.8,42l53.8-42v35.6h61.3v-18.9h-39.7v-76.2h-21.6v35.6l-51.6,40.3l-11.5-9l24.7-19.3l26.9-21l-15.3-12 l-51.6,40.3l-11.5-9l51.6-40.3l-15.3-12l-53.8,42c-5.3-20.5-23.9-35.6-46-35.6h-38.5v95.1H-468.9z M-485.9-422.6v-57.3h16.9 c14.3,0,26,12.8,26,28.6c0,15.8-11.6,28.6-26,28.6H-485.9z"></path> </g> <g transform="matrix(NaN NaN NaN NaN 0 0)"> </g> <g transform="matrix(NaN NaN NaN NaN 0 0)"> </g> <g transform="matrix(NaN NaN NaN NaN 0 0)"> </g> <g transform="matrix(NaN NaN NaN NaN 0 0)"> </g> </svg> 